<?xml version="1.0" encoding="utf-8" ?>
<svg baseProfile="full" height="200mm" version="1.1" viewBox="0,0,200,200" width="200mm" xmlns="http://www.w3.org/2000/svg" xmlns:ev="http://www.w3.org/2001/xml-events" xmlns:xlink="http://www.w3.org/1999/xlink"><defs /><rect fill="#1a1a1a" height="200" width="200" x="0" y="0" /><text alignment-baseline="middle" fill="#e1ed5e" style="dominant-baseline: central; font-size:9.0px; font-family:Arial;" text-anchor="middle" x="100.0" y="100.0">2024</text><line stroke="#e1ed5e" stroke-width="0.3" x1="100.0" x2="100.0" y1="15.0" y2="10.0" /><path d="M 100.0 14.0 a86.0,86.0 0 0,1 42.35913384403234,11.155469271406648" fill="none" id="id61" stroke="none" /><text fill="#e1ed5e" style="font-size:6.75px; font-family:Arial;" text-anchor="middle"><textPath startOffset="22.145653131862478" xlink:href="#id61">January</textPath></text><line stroke="#e1ed5e" stroke-width="0.3" x1="143.13028292997686" x2="145.6673583964461" y1="26.7553504044142" y2="22.446841604673864" /><path d="M 143.63769802327073 25.89364864446614 a86.0,86.0 0 0,1 29.32050498858742,28.57503671076993" fill="none" id="id62" stroke="none" /><text fill="#e1ed5e" style="font-size:6.75px; font-family:Arial;" text-anchor="middle"><textPath startOffset="20.669276256404974" xlink:href="#id62">February</textPath></text><line stroke="#e1ed5e" stroke-width="0.3" x1="172.87174338648825" x2="177.1583165268699" y1="56.24261187166439" y2="53.66864786411523" /><path d="M 173.72905801456457 55.72781907015455 a86.0,86.0 0 0,1 12.242430191666344,42.057860355516425" fill="none" id="id63" stroke="none" /><text fill="#e1ed5e" style="font-size:6.75px; font-family:Arial;" text-anchor="middle"><textPath startOffset="22.145653131862474" xlink:href="#id63">March</textPath></text><path d="M 120.82617615685814 97.30363454192243 l 21.62871454447109 -2.8002701197323345 a42.80923670350893,42.80923670350893 0 0,0 0.08810123329247092,0.7296045953461027 l -21.673597864023225 2.428571847462819" fill="#ff0f01" stroke="none" /><path d="M 120.93736805541906 98.37931529534042 l 21.43314121032562 -1.659060682337914 a42.49725620839641,42.49725620839641 0 0,0 0.050057799045191906,0.7278294119403722 l -21.45846297053588 1.2908878462432076" fill="#ff0901" stroke="none" /><path d="M 120.99303781780057 99.45929381324524 l 21.295283855890442 -0.5484909725554492 a42.30234627570219,42.30234627570219 0 0,0 0.012466236355433256,0.7260957703248254 l -21.301561523844544 0.18284828626155739" fill="#ff0400" stroke="none" /><line stroke="#e1ed5e" stroke-width="0.3" x1="184.99686870605535" x2="189.99668451229388" y1="99.2704041080226" y2="99.22748670261217" /><path d="M 185.99683186730306 99.26182062694052 a86.0,86.0 0 0,1 -10.086455211305974,41.156179273409016" fill="none" id="id64" stroke="none" /><text fill="#e1ed5e" style="font-size:6.75px; font-family:Arial;" text-anchor="middle"><textPath startOffset="21.40746469413373" xlink:href="#id64">April</textPath></text><path d="M 120.93736805541906 101.62068470465957 l 41.855941314070314 3.239914573182709 a62.98114898056531,62.98114898056531 0 0,0 -0.09269138825348329,1.0772144345674826 l -41.79415630311909 -3.9579500551258486" fill="#78ff26" stroke="none" /><path d="M 120.9064616781168 101.97986365728391 l 52.08878256005999 4.932861864940715 a73.32183478021194,73.32183478021194 0 0,0 -0.12942214257890586,1.252041827147718 l -51.99642802499942 -5.826308214371365" fill="#39ff8d" stroke="none" /><path d="M 120.86939407059847 102.33845913500097 l 21.002211484813284 2.3533416032943664 a42.13364861907709,42.13364861907709 0 0,0 -0.08671087578975788,0.7180904407169041 l -20.958718522763863 -2.7135257209346793" fill="#ff0100" stroke="none" /><path d="M 120.7213421655516 103.40968896794604 l 51.818303157313714 8.526682065358987 a73.5151487586866,73.5151487586866 0 0,0 -0.21559256444710753,1.2434806202364224 l -51.66429577537437 -9.414955718515998" fill="#3aff90" stroke="none" /><path d="M 120.65975698304385 103.76489593502545 l 51.622229039173774 9.407289757863536 a73.47238923054029,73.47238923054029 0 0,0 -0.23676899971995308,1.2388754555908685 l -51.45313374717166 -10.29206777848772" fill="#3aff90" stroke="none" /><path d="M 120.592083275326 104.11899336999214 l 51.456988603199804 10.292838857654887 a73.47632044893663,73.47632044893663 0 0,0 -0.2580148604812927,1.2346945098338677 l -51.27271603189415 -11.174649818774165" fill="#3aff90" stroke="none" /><path d="M 120.51834098615036 104.47187691870673 l 61.555022958451104 13.415630756120176 a84.0,84.0 0 0,0 -0.3191565537693437,1.4062626642439322 l -61.315655543124095 -14.470327754303124" fill="#4dd2ff" stroke="none" /><path d="M 120.16314734710363 105.8691983318838 l 20.254880957882982 5.895900649041695 a42.09554092886411,42.09554092886411 0 0,0 -0.20791925793236243,0.6920955875830669 l -20.15068537994699 -6.242733840215486" fill="#ff0000" stroke="none" /><path d="M 119.83427380445688 106.89939002012753 l 31.6076421384956 10.994778678566817 a54.465328322696465,54.465328322696465 0 0,0 -0.31475728494015454,0.8804321454662661 l -31.4142446835115 -11.535745780414004" fill="#fff617" stroke="none" /><path d="M 119.4528033332814 107.91128576633889 l 48.788486860552915 19.84185287067286 a73.66892419144114,73.66892419144114 0 0,0 -0.4864750402930367,1.1673630016831718 l -48.44068597572339 -20.676448381797307" fill="#3aff93" stroke="none" /><path d="M 119.0197475246899 108.90220220490707 l 47.54037175988584 22.251294437719295 a73.49006621468703,73.49006621468703 0 0,0 -0.5445989827097524,1.1380024169249499 l -47.15139351921618 -23.06410935670935" fill="#3aff90" stroke="none" /><path d="M 118.70294669586154 109.54985784667822 l 50.49008927318937 25.78059933901984 a77.69116701121703,77.69116701121703 0 0,0 -0.6166900310804518,1.1825844482252874 l -50.040091173133966 -26.64353003034963" fill="#41ffd2" stroke="none" /><line stroke="#e1ed5e" stroke-width="0.3" x1="174.33088141563837" x2="178.70328620479359" y1="141.23008692659167" y2="143.65538615756765" /><path d="M 175.20536237346943 141.71514677278685 a86.0,86.0 0 0,1 -30.301960400862466,31.631185727798858" fill="none" id="id65" stroke="none" /><text fill="#e1ed5e" style="font-size:6.75px; font-family:Arial;" text-anchor="middle"><textPath startOffset="22.145653131862474" xlink:href="#id65">May</textPath></text><path d="M 118.36410011445183 110.18625677009912 l 45.97702555156034 25.50268103935249 a73.57635988506414,73.57635988506414 0 0,0 -0.6221288875603279,1.0992421330804458 l -45.532463298978634 -26.288179942532057" fill="#3aff91" stroke="none" /><path d="M 118.00360718960297 110.81064883170644 l 44.79496903356658 26.898091840656967 a73.25032627062348,73.25032627062348 0 0,0 -0.6565741913440573,1.0724645980944292 l -44.32662687776712 -27.663093554875953" fill="#39ff8c" stroke="none" /><path d="M 117.62189284568427 111.42229804090321 l 44.017694877658414 28.531738012996062 a73.4558627455967,73.4558627455967 0 0,0 -0.6949468926449293,1.0522381698971255 l -43.52142354609276 -29.283156061232248" fill="#3aff8f" stroke="none" /><path d="M 117.423217284605 111.72311816256416 l 21.054072740030755 14.166119752905157 a46.376227611608385,46.376227611608385 0 0,0 -0.4500929121445006,0.6566990100084699 l -20.807790091070935 -14.525453497983671" fill="#ff5a08" stroke="none" /><path d="M 117.01052211995028 112.31430620078461 l 36.50923066404366 26.429867489183366 a66.07174080481181,66.07174080481181 0 0,0 -0.6729815200347631,0.9130286817704026 l -36.050147124425074 -27.052702480222646" fill="#49ff2c" stroke="none" /><path d="M 116.79662413953412 112.60449989151573 l 42.05061200823423 31.555563194894464 a73.57382940983119,73.57382940983119 0 0,0 -0.7667374802292038,1.003683974223806 l -41.502722550650724 -32.27276808235915" fill="#3aff91" stroke="none" /><path d="M 116.57777611688842 112.89097897827486 l 41.81268045192181 32.51379322115115 a73.96647049032339,73.96647049032339 0 0,0 -0.78803725979265,0.9956593346017889 l -41.2483767614876 -33.226772499667625" fill="#3bff98" stroke="none" /><path d="M 116.1254893667686 113.45245675266167 l 41.93359804385485 34.982498908279524 a75.60954014429498,75.60954014429498 0 0,0 -0.8400055603043376,0.9895244378745714 l -41.3268979200434 -35.69719012860365" fill="#3effb2" stroke="none" /><path d="M 115.89218393027572 113.72728997021213 l 24.112693407909177 20.82797026673029 a52.86261647786678,52.86261647786678 0 0,0 -0.5990818024729934,0.6816451192846069 l -23.751600541477597 -21.23882766382619" fill="#ffd814" stroke="none" /><line stroke="#e1ed5e" stroke-width="0.3" x1="143.1302829299769" x2="145.66735839644613" y1="173.24464959558577" y2="177.55315839532614" /><path d="M 143.63769802327073 174.10635135553383 a86.0,86.0 0 0,1 -40.68552437913181,11.842963189579606" fill="none" id="id66" stroke="none" /><text fill="#e1ed5e" style="font-size:6.75px; font-family:Arial;" text-anchor="middle"><textPath startOffset="21.407464694133747" xlink:href="#id66">June</textPath></text><line stroke="#e1ed5e" stroke-width="0.3" x1="101.45913802915013" x2="101.54496967792366" y1="184.9874750549273" y2="189.98673829345242" /><path d="M 101.47630435890484 185.9873277026323 a86.0,86.0 0 0,1 -42.54439059252881,-10.42667462771756" fill="none" id="id67" stroke="none" /><text fill="#e1ed5e" style="font-size:6.75px; font-family:Arial;" text-anchor="middle"><textPath startOffset="22.145653131862474" xlink:href="#id67">July</textPath></text><line stroke="#e1ed5e" stroke-width="0.3" x1="58.13341422392154" x2="55.67067388415222" y1="173.97424548756322" y2="178.32567169271397" /><path d="M 57.64086615596768 174.84453072859336 a86.0,86.0 0 0,1 -31.369924170532247,-30.572349798747897" fill="none" id="id68" stroke="none" /><text fill="#e1ed5e" style="font-size:6.75px; font-family:Arial;" text-anchor="middle"><textPath startOffset="22.145653131862474" xlink:href="#id68">August</textPath></text><line stroke="#e1ed5e" stroke-width="0.3" x1="26.387840678322732" x2="22.057713659400548" y1="142.50000000000003" y2="145.00000000000006" /><path d="M 25.521815274538298 143.00000000000003 a86.0,86.0 0 0,1 -11.493303480769221,-40.785679425670985" fill="none" id="id69" stroke="none" /><text fill="#e1ed5e" style="font-size:6.75px; font-family:Arial;" text-anchor="middle"><textPath startOffset="21.40746469413373" xlink:href="#id69">September</textPath></text><line stroke="#e1ed5e" stroke-width="0.3" x1="15.003131293944662" x2="10.003315487706104" y1="100.72959589197737" y2="100.7725132973878" /><path d="M 14.003168132696942 100.73817937305945 a86.0,86.0 0 0,1 10.791469493833604,-42.45332614584628" fill="none" id="id70" stroke="none" /><text fill="#e1ed5e" style="font-size:6.75px; font-family:Arial;" text-anchor="middle"><textPath startOffset="22.145653131862435" xlink:href="#id70">October</textPath></text><line stroke="#e1ed5e" stroke-width="0.3" x1="26.387840678322718" x2="22.05771365940052" y1="57.49999999999999" y2="54.99999999999999" /><path d="M 25.521815274538284 56.99999999999999 a86.0,86.0 0 0,1 29.574782752854787,-30.34633250058573" fill="none" id="id71" stroke="none" /><text fill="#e1ed5e" style="font-size:6.75px; font-family:Arial;" text-anchor="middle"><textPath startOffset="21.40746469413373" xlink:href="#id71">November</textPath></text><line stroke="#e1ed5e" stroke-width="0.3" x1="56.869717070023135" x2="54.33264160355391" y1="26.7553504044142" y2="22.446841604673864" /><path d="M 56.362301976729285 25.89364864446614 a86.0,86.0 0 0,1 42.16139366436587,-11.88097634709845" fill="none" id="id72" stroke="none" /><text fill="#e1ed5e" style="font-size:6.75px; font-family:Arial;" text-anchor="middle"><textPath startOffset="22.145653131862474" xlink:href="#id72">December</textPath></text></svg>