<?xml version="1.0" encoding="utf-8" ?>
<svg baseProfile="full" height="200mm" version="1.1" viewBox="0,0,200,200" width="200mm" xmlns="http://www.w3.org/2000/svg" xmlns:ev="http://www.w3.org/2001/xml-events" xmlns:xlink="http://www.w3.org/1999/xlink"><defs /><rect fill="#1a1a1a" height="200" width="200" x="0" y="0" /><text alignment-baseline="middle" fill="#e1ed5e" style="dominant-baseline: central; font-size:9.0px; font-family:Arial;" text-anchor="middle" x="100.0" y="100.0">2021</text><line stroke="#e1ed5e" stroke-width="0.3" x1="100.0" x2="100.0" y1="15.0" y2="10.0" /><path d="M 100.0 14.0 a86.0,86.0 0 0,1 42.46469731375804,11.215312516191453" fill="none" id="id25" stroke="none" /><text fill="#e1ed5e" style="font-size:6.75px; font-family:Arial;" text-anchor="middle"><textPath startOffset="22.20632615414155" xlink:href="#id25">January</textPath></text><path d="M 101.44485096284872 79.0497635885617 l 2.491753947609363 -36.13025538539001 a57.21607642952133,57.21607642952133 0 0,0 0.9819635843520761,0.07621927317717306 l -3.11330772132378 36.08201085002437" fill="#86ff25" stroke="none" /><path d="M 103.2404852339499 79.25152402106235 l 3.5617526525183787 -22.805516463846196 a44.081977019754646,44.081977019754646 0 0,0 0.748702558981131,0.12354233736295941 l -3.953784417638385 22.74082786354361" fill="#ffbc11" stroke="none" /><line stroke="#e1ed5e" stroke-width="0.3" x1="143.23703022742887" x2="145.7803849466894" y1="26.81831364943548" y2="22.513508569990506" /><path d="M 143.74570117128098 25.957352633546492 a86.0,86.0 0 0,1 28.547481713284135,27.462654790039103" fill="none" id="id26" stroke="none" /><text fill="#e1ed5e" style="font-size:6.75px; font-family:Arial;" text-anchor="middle"><textPath startOffset="19.985693538727396" xlink:href="#id26">February</textPath></text><line stroke="#e1ed5e" stroke-width="0.3" x1="172.23445277983987" x2="176.4835382374775" y1="55.19839476539836" y2="52.563006222186495" /><path d="M 173.08426987136738 54.67131705675599 a86.0,86.0 0 0,1 12.851231095245387,41.99856678651699" fill="none" id="id27" stroke="none" /><text fill="#e1ed5e" style="font-size:6.75px; font-family:Arial;" text-anchor="middle"><textPath startOffset="22.20632615414155" xlink:href="#id27">March</textPath></text><line stroke="#e1ed5e" stroke-width="0.3" x1="184.98032266829074" x2="189.97916517819016" y1="98.17113171792111" y2="98.06355123074" /><path d="M 185.9800911702706 98.14961562048488 a86.0,86.0 0 0,1 -9.607161424134198,41.387399972396054" fill="none" id="id28" stroke="none" /><text fill="#e1ed5e" style="font-size:6.75px; font-family:Arial;" text-anchor="middle"><textPath startOffset="21.466115282336823" xlink:href="#id28">April</textPath></text><line stroke="#e1ed5e" stroke-width="0.3" x1="174.80103733775053" x2="179.2010983576182" y1="140.37084112569926" y2="142.7455964860345" /><path d="M 175.68104954172406 140.8457921977663 a86.0,86.0 0 0,1 -30.038265399797805,32.042727171017184" fill="none" id="id29" stroke="none" /><text fill="#e1ed5e" style="font-size:6.75px; font-family:Arial;" text-anchor="middle"><textPath startOffset="22.206326154141568" xlink:href="#id29">May</textPath></text><path d="M 117.14729908036423 112.12312394758627 l 30.857165211895914 21.81598610846736 a58.79023544249335,58.79023544249335 0 0,0 -0.5913183684024114,0.8212894955449236 l -30.4770670511179 -22.343909209463416" fill="#72ff27" stroke="none" /><path d="M 116.27256486870786 113.27417163493432 l 9.2127436401025 7.5151975914096285 a32.8891900571981,32.8891900571981 0 0,0 -0.36163074021278774,0.4356075227169219 l -9.08201689999617 -7.672666371240321" fill="#ff0200" stroke="none" /><path d="M 116.0416608686014 113.55231037782055 l 22.294996485538757 18.835251207425795 a50.18618776642507,50.18618776642507 0 0,0 -0.5631786220593056,0.6551039701217465 l -21.96747535390867 -19.21623227670907" fill="#e7ff1a" stroke="none" /><path d="M 115.56566222782051 114.09645910891815 l 20.835775166305776 18.869139541618257 a49.1100329744009,49.1100329744009 0 0,0 -0.5728418562156209,0.6217066972814072 l -20.507886902094434 -19.224997493700997" fill="#f6ff19" stroke="none" /><path d="M 114.29624159901734 115.38237550388516 l 19.1824423175384 20.639797443705387 a49.17742592542611,49.17742592542611 0 0,0 -0.6250227207407691,0.5709434362510185 l -18.824320047330765 -20.966933646542987" fill="#f5ff19" stroke="none" /><path d="M 113.75828350139079 115.86535959552629 l 18.52852905174249 21.366166509967204 a49.28107954362615,49.28107954362615 0 0,0 -0.645663158762105,0.5502481512601525 l -18.158000416403336 -21.681939051450303" fill="#f4ff19" stroke="none" /><line stroke="#e1ed5e" stroke-width="0.3" x1="143.8653032363475" x2="146.44561519142675" y1="172.8068346515853" y2="177.08958963109032" /><path d="M 144.38136562736335 173.6633856474863 a86.0,86.0 0 0,1 -40.68145358897372,12.25698825130547" fill="none" id="id30" stroke="none" /><text fill="#e1ed5e" style="font-size:6.75px; font-family:Arial;" text-anchor="middle"><textPath startOffset="21.466115282336833" xlink:href="#id30">June</textPath></text><path d="M 110.5260780823613 118.17145234162733 l 9.041820630724454 15.609138692223572 a39.03883951453822,39.03883951453822 0 0,0 -0.584376539969548,0.3318242506855541 l -8.771795323833707 -15.762466108703755" fill="#ff6b09" stroke="none" /><path d="M 109.89434966115114 118.52300852407294 l 13.239191160269327 24.784817508154337 a49.09917012103146,49.09917012103146 0 0,0 -0.7489005175316972,0.39178935554825917 l -12.810599740211135 -25.009036282647312" fill="#f6ff19" stroke="none" /><path d="M 108.2653958097858 119.30500536409082 l 11.132822518125952 26.00228753418431 a49.28530880564129,49.28530880564129 0 0,0 -0.782764624483927,0.3271956765183723 l -10.683586434144562 -26.190068253722654" fill="#f4ff19" stroke="none" /><path d="M 107.93186726928326 119.44442032107085 l 10.692851336637432 26.212780517076165 a49.309838080494856,49.309838080494856 0 0,0 -0.7886731121441152,0.313829307680187 l -10.24005714845145 -26.39295666916242" fill="#f3ff19" stroke="none" /><path d="M 106.57524785965236 119.94407469862006 l 7.673860859162994 23.276393144220602 a45.508745751060246,45.508745751060246 0 0,0 -0.7460804654177812,0.23887140458221642 l -7.272059048654273 -23.405037395462525" fill="#ffd213" stroke="none" /><path d="M 105.18746579009965 120.34920634021253 l 7.754627513146812 30.419577061631507 a52.39243406421667,52.39243406421667 0 0,0 -0.8758186610738646,0.21525491832979848 l -7.229855567329737 -30.548553238275336" fill="#c7ff1e" stroke="none" /><path d="M 104.48393922423573 120.51570834832081 l 6.285623034925933 28.759089390647873 a50.437973427470624,50.437973427470624 0 0,0 -0.8497802698493927,0.17807971780574217 l -5.789651303647163 -28.863025089180155" fill="#e3ff1b" stroke="none" /><path d="M 104.13013068566511 120.58985236759428 l 5.52935125522809 27.565356812767433 a49.11445573933233,49.11445573933233 0 0,0 -0.8303439228641715,0.15913738905211097 l -5.0540397177922145 -27.656451400168013" fill="#f6ff19" stroke="none" /><path d="M 102.34483914955558 120.86867818915974 l 3.16069656371567 28.129673395408165 a49.306686985590844,49.306686985590844 0 0,0 -0.8442417813994869,0.0875091125384385 l -2.6760221857105804 -28.17991187640236" fill="#f3ff19" stroke="none" /><path d="M 101.62511606390274 120.93702456842531 l 2.183004808811172 28.124529890688304 a49.20912426091091,49.20912426091091 0 0,0 -0.8450782246638796,0.05828154215584237 l -1.6985638233683624 -28.157939777360433" fill="#f5ff19" stroke="none" /><line stroke="#e1ed5e" stroke-width="0.3" x1="102.19456741930631" x2="102.32365962044197" y1="184.97166512339345" y2="189.96999836594603" /><path d="M 102.22038585953345 185.97133177190398 a86.0,86.0 0 0,1 -42.740103519485714,-10.115201625700543" fill="none" id="id31" stroke="none" /><text fill="#e1ed5e" style="font-size:6.75px; font-family:Arial;" text-anchor="middle"><textPath startOffset="22.20632615414155" xlink:href="#id31">July</textPath></text><path d="M 100.54218724476979 120.99299961872073 l 0.5756820214248944 22.289887069195885 a43.29731991400082,43.29731991400082 0 0,0 -0.7452093684063248,0.012829455091255383 l -0.19191296312590161 -22.2964940015663" fill="#ffb010" stroke="none" /><path d="M 99.81925306533755 120.99922214144158 l -0.4810186670316071 55.884863895705195 a76.88693399712966,76.88693399712966 0 0,0 -1.3233351079583102,-0.02278241398728052 l 1.4429134648825852 -55.868304004438755" fill="#42ffda" stroke="none" /><path d="M 98.73552117531835 120.96189622390904 l -1.7058302736837199 28.27839934888823 a49.32980279948694,49.32980279948694 0 0,0 -0.8471506615679418,-0.05842446953849671 l 2.1923436960305915 -28.24484653483345" fill="#f3ff19" stroke="none" /><path d="M 98.37488393609728 120.93702456842531 l -2.6013913539283555 33.514772205554635 a54.61557961669724,54.61557961669724 0 0,0 -0.9366719685139402,-0.08081999875347887 l 3.1779076401838373 -33.4650279545225" fill="#a9ff21" stroke="none" /><path d="M 97.65516085044442 120.86867818915974 l -3.175721788835021 28.263395398384358 a49.441250470496115,49.441250470496115 0 0,0 -0.8449099506623167,-0.10230682849300089 l 3.661759162548727 -28.20454304116601" fill="#f1ff19" stroke="none" /><path d="M 96.93821686468263 120.77559828337769 l -1.7135804149380243 11.627426487645717 a32.753016828204764,32.753016828204764 0 0,0 -0.5570572842695933,-0.08700089134123766 l 1.9134735628161348 -11.596207288957373" fill="#ff0000" stroke="none" /><path d="M 96.22490169976321 120.6578951692458 l -5.174809185041906 28.317319752638124 a49.786268394405404,49.786268394405404 0 0,0 -0.8417017918875989,-0.1613141516824027 l 5.661478591501201 -28.224048402607256" fill="#ecff1a" stroke="none" /><path d="M 94.81253420990036 120.34920634021253 l -7.055627773648101 27.67756573927049 a49.5627297107947,49.5627297107947 0 0,0 -0.8248879863939858,-0.21786041449689256 l 7.531006202853575 -27.552013975470018" fill="#f0ff19" stroke="none" /><path d="M 94.46302465271185 120.25689768951611 l -7.630877348174902 27.917390276793046 a49.94150944525298,49.94150944525298 0 0,0 -0.8272902168482165,-0.23380047885992633 l 8.110298733127733 -27.781901004594598" fill="#eaff1a" stroke="none" /><path d="M 93.76903079525671 120.05430185196036 l -8.483859359088864 27.305202588263562 a49.59283053513441,49.59283053513441 0 0,0 -0.8130358566556674,-0.2603084064750213 l 8.952616560835473 -27.155121335128833" fill="#efff19" stroke="none" /><path d="M 92.06813273071674 119.44442032107085 l -10.866548411316833 26.638586801264285 a49.76970943794852,49.76970943794852 0 0,0 -0.7904580261940165,-0.33041151905714417 l 11.323477897008312 -26.447590239187168" fill="#edff1a" stroke="none" /><path d="M 91.40352486487194 119.15986991738527 l -23.01297377259222 51.29143945211887 a77.21751259997541,77.21751259997541 0 0,0 -1.2080201988725934,-0.5545428236532294 l 23.89246196723223 -50.88770955813157" fill="#43ffde" stroke="none" /><path d="M 90.42595943632237 118.69057910512821 l -15.413517807276767 30.090490211433472 a54.8084920154628,54.8084920154628 0 0,0 -0.8359837433979362,-0.43734718351404533 l 15.929192453201198 -29.82071360897471" fill="#a6ff21" stroke="none" /><path d="M 90.10565033884886 118.52300852407294 l -10.658487864030679 19.953535939238165 a43.62182486065522,43.62182486065522 0 0,0 -0.6592653388301611,-0.3594840275921255 l 11.000376014729481 -19.767111259886274" fill="#ffb510" stroke="none" /><line stroke="#e1ed5e" stroke-width="0.3" x1="58.666819895761336" x2="56.23545636021788" y1="174.27360380694188" y2="178.64263932499728" /><path d="M 58.180547188652646 175.14741091055294 a86.0,86.0 0 0,1 -31.652253787137756,-30.449443065178592" fill="none" id="id32" stroke="none" /><text fill="#e1ed5e" style="font-size:6.75px; font-family:Arial;" text-anchor="middle"><textPath startOffset="22.20632615414155" xlink:href="#id32">August</textPath></text><path d="M 89.4739219176387 118.17145234162733 l -14.417519122978053 24.889351910348495 a49.76360019501394,49.76360019501394 0 0,0 -0.7375252968565051,-0.43574294531724805 l 14.84381229086294 -24.637490392737497" fill="#edff1a" stroke="none" /><path d="M 88.8546689885994 117.79835938074946 l -17.826492796890413 28.467734603202715 a54.58862543891862,54.58862543891862 0 0,0 -0.7921022653563216,-0.5055571427719762 l 18.313876864293658 -28.156663031606936" fill="#a9ff21" stroke="none" /><path d="M 88.24862548938628 117.40417183066458 l -16.33587953333953 24.193974427969255 a50.19262507464876,50.19262507464876 0 0,0 -0.7118822771994582,-0.4896391215469513 l 16.749918695161877 -23.909194517057205" fill="#e7ff1a" stroke="none" /><path d="M 87.65650970185807 116.9893568818739 l -16.63396411150502 22.894687468841866 a49.29939003510114,49.29939003510114 0 0,0 -0.6822449377808407,-0.5047084947973632 l 17.025594019704425 -22.604969025304737" fill="#f3ff19" stroke="none" /><path d="M 87.07902340077011 116.55440617244103 l -27.558886625138776 35.30855422182188 a65.79047033971165,65.79047033971165 0 0,0 -0.8867380800122033,-0.7044783600501191 l 28.16258219786834 -34.82894194776663" fill="#32ff46" stroke="none" /><path d="M 85.70375840098266 115.38237550388516 l -19.729294802509738 21.22819616450206 a49.9807071308296,49.9807071308296 0 0,0 -0.6251495588131573,-0.5911179277258924 l 20.091780195713714 -20.885443600030236" fill="#eaff1a" stroke="none" /><path d="M 85.18274418774928 114.88116024355367 l -39.59359710646426 39.76435789634238 a77.11467803291241,77.11467803291241 0 0,0 -0.9325712110610588,-0.9446897132184351 l 40.27220894258085 -39.07692768914328" fill="#43ffdc" stroke="none" /><path d="M 84.67929136418377 114.36230785411682 l -21.378967881898134 20.041587215181597 a50.304018253457365,50.304018253457365 0 0,0 -0.5867690458777522,-0.6368219110062819 l 21.720783335771614 -19.67061404937397" fill="#e5ff1a" stroke="none" /><path d="M 84.19399662182784 113.82643327865904 l -26.299374891056484 23.005597525291908 a55.941588932904146,55.941588932904146 0 0,0 -0.6277644980262518,-0.7302319350381389 l 26.691481898653514 -22.54948849109224" fill="#97ff23" stroke="none" /><path d="M 83.72743513129214 113.27417163493432 l -17.290707846770296 14.10471093520735 a43.31392947035823,43.31392947035823 0 0,0 -0.4663096957984324,-0.5817930439020197 l 17.530935454623588 -13.804990057727071" fill="#ffb010" stroke="none" /><path d="M 83.50135304334701 112.99209946851258 l -27.48554672281833 21.643893460324588 a55.98447373870459,55.98447373870459 0 0,0 -0.5896849491731205,-0.7622472871373497 l 27.85403848920952 -21.167568179073985" fill="#97ff23" stroke="none" /><path d="M 82.6465618267979 111.8261652097733 l -30.0194755878541 20.45792161007888 a57.32761306738857,57.32761306738857 0 0,0 -0.5486986762266827,-0.8202300725448703 l 30.367177369491515 -19.938154623328188" fill="#85ff25" stroke="none" /><path d="M 82.24976979558568 111.22182372390057 l -30.78469082333393 19.462303859491346 a57.42085200276666,57.42085200276666 0 0,0 -0.5209858441390534,-0.8399950662562921 l 31.115141307140938 -18.92951246186979" fill="#84ff25" stroke="none" /><line stroke="#e1ed5e" stroke-width="0.3" x1="26.63291911575756" x2="22.317208475507996" y1="142.92168965132927" y2="145.44649492493687" /><path d="M 25.769776987707644 143.4266507060508 a86.0,86.0 0 0,1 -11.730757126820373,-40.83630448921669" fill="none" id="id33" stroke="none" /><text fill="#e1ed5e" style="font-size:6.75px; font-family:Arial;" text-anchor="middle"><textPath startOffset="21.46611528233685" xlink:href="#id33">September</textPath></text><path d="M 81.87401531095188 110.60418214915194 l -38.649807457424664 22.611163218945926 a65.77803388504024,65.77803388504024 0 0,0 -0.5633356233926562,-0.9822231430861156 l 39.0332950769697 -21.942520230001506" fill="#32ff45" stroke="none" /><path d="M 81.51974371655577 109.97397251340807 l -39.75780689024472 21.457671746248177 a66.1786994665819,66.1786994665819 0 0,0 -0.5324154897056229,-1.0071294605070176 l 40.12127488817523 -20.770127270655035" fill="#32ff4b" stroke="none" /><path d="M 81.02952815118164 109.00673069616217 l -25.944022293886984 12.317607270839831 a49.71960552765917,49.71960552765917 0 0,0 -0.3604088572390756,-0.7762886150158164 l 26.152205767965885 -11.869198588545188" fill="#edff19" stroke="none" /><path d="M 80.87730276802145 108.67885076344099 l -41.18281596346221 18.69085252092146 a66.2257924047687,66.2257924047687 0 0,0 -0.4621895379835402,-1.0421153936783432 l 41.49844658617703 -17.97918879075042" fill="#32ff4c" stroke="none" /><path d="M 80.58989483394504 108.01547362559985 l -52.03075418601097 21.486289452330887 a77.2926284303233,77.2926284303233 0 0,0 -0.4972396208624658,-1.2341079606561218 l 52.39289642113082 -20.587482123831958" fill="#43ffde" stroke="none" /><path d="M 80.32549172779594 107.34259656027581 l -22.973185017815062 8.573674470365393 a45.52091196890029,45.52091196890029 0 0,0 -0.26765372595600423,-0.7364681011297374 l 23.11736300477629 -8.17695857222954" fill="#ffd213" stroke="none" /><path d="M 80.0844068197444 106.66101706037122 l -37.36573796456672 12.497434337135083 a60.40030759585089,60.40030759585089 0 0,0 -0.321294399974221,-0.9888424853872654 l 37.575324615557186 -11.852392951770014" fill="#5eff2a" stroke="none" /><path d="M 79.58551787078972 104.9243191809786 l -44.10698950379753 10.639353624258414 a66.37204391065193,66.37204391065193 0 0,0 -0.25834349082328717,-1.1129369969893927 l 44.283593560551374 -9.878547969920447" fill="#33ff4e" stroke="none" /><path d="M 79.35854240842038 103.8639653848113 l -45.85199331444566 8.583236634601377 a67.64844308263173,67.64844308263173 0 0,0 -0.2044063992289468,-1.146419639771432 l 45.99294615601379 -7.792698244096733" fill="#34ff60" stroke="none" /><path d="M 79.1416061653843 102.43462659150553 l -57.154826237758435 6.671206848170462 a78.54284632410389,78.54284632410389 0 0,0 -0.14518345370753716,-1.3442184694533934 l 57.26119199296703 -5.686392056832287" fill="#45ffee" stroke="none" /><path d="M 79.07016306316243 101.71520430193888 l -61.91696415320493 5.074107533616507 a83.12452830575029,83.12452830575029 0 0,0 -0.10459219510675184,-1.4270774033456377 l 61.99513290697602 -4.0075569937741085" fill="#4cdcff" stroke="none" /><path d="M 79.04373962182676 101.35467743843564 l -62.86878113451971 4.064032315306924 a84.0,84.0 0 0,0 -0.08085459644987347,-1.4437131346582497 l 62.92942208185711 -2.9812474643132365" fill="#4dd2ff" stroke="none" /><line stroke="#e1ed5e" stroke-width="0.3" x1="15.007084014347285" x2="10.007500721073583" y1="101.09737516637583" y2="101.16192664675087" /><path d="M 14.007167355692545 101.11028546245083 a86.0,86.0 0 0,1 10.666146001902534,-42.60595125391555" fill="none" id="id34" stroke="none" /><text fill="#e1ed5e" style="font-size:6.75px; font-family:Arial;" text-anchor="middle"><textPath startOffset="22.20632615414155" xlink:href="#id34">October</textPath></text><path d="M 79.00175016825051 100.2711162175752 l -28.301865359623694 0.36541591552178343 a49.3042242717511,49.3042242717511 0 0,0 -0.0036525102542149766,-0.8487147504170628 l 28.303962167167413 0.12180831309895475" fill="#f3ff19" stroke="none" /><path d="M 79.00486145842228 99.54816195383935 l -12.089729419206774 -0.2601840282486082 a33.09252881568572,33.09252881568572 0 0,0 0.01715816976097887,-0.5693961218240878 l 12.08345955499015 0.4682502974976905" fill="#ff0601" stroke="none" /><path d="M 79.05617556472873 98.46500227214037 l -28.151823567135764 -2.0632805314145086 a49.22733244049913,49.22733244049913 0 0,0 0.06921249526166445,-0.8445677510141851 l 28.1121365880546 2.547562199636472" fill="#f4ff19" stroke="none" /><path d="M 79.16333360222342 97.38593545837743 l -11.874964739711688 -1.48977401982166 a32.968049724141835,32.968049724141835 0 0,0 0.07548741590461981,-0.5624689292409659 l 11.847561324749234 1.6939612911272854" fill="#ff0400" stroke="none" /><line stroke="#e1ed5e" stroke-width="0.3" x1="26.266209847984243" x2="21.928928074336255" y1="57.711370442889674" y2="55.22380399835377" /><path d="M 25.398753493254645 57.213857153982495 a86.0,86.0 0 0,1 29.58750427330803,-30.492523968695096" fill="none" id="id35" stroke="none" /><text fill="#e1ed5e" style="font-size:6.75px; font-family:Arial;" text-anchor="middle"><textPath startOffset="21.46611528233685" xlink:href="#id35">November</textPath></text><line stroke="#e1ed5e" stroke-width="0.3" x1="56.762969772571076" x2="54.21961505331055" y1="26.818313649435495" y2="22.513508569990535" /><path d="M 56.25429882871897 25.957352633546506 a86.0,86.0 0 0,1 42.265352541879196,-11.944610805530505" fill="none" id="id36" stroke="none" /><text fill="#e1ed5e" style="font-size:6.75px; font-family:Arial;" text-anchor="middle"><textPath startOffset="22.20632615414155" xlink:href="#id36">December</textPath></text></svg>