<?xml version="1.0" encoding="utf-8" ?>
<svg baseProfile="full" height="200mm" version="1.1" viewBox="0,0,200,200" width="200mm" xmlns="http://www.w3.org/2000/svg" xmlns:ev="http://www.w3.org/2001/xml-events" xmlns:xlink="http://www.w3.org/1999/xlink"><defs /><rect fill="#1a1a1a" height="200" width="200" x="0" y="0" /><text alignment-baseline="middle" fill="#e1ed5e" style="dominant-baseline: central; font-size:9.0px; font-family:Arial;" text-anchor="middle" x="100.0" y="100.0">2019</text><line stroke="#e1ed5e" stroke-width="0.3" x1="100.0" x2="100.0" y1="15.0" y2="10.0" /><path d="M 100.0 14.0 a86.0,86.0 0 0,1 42.46469731375804,11.215312516191453" fill="none" id="id1" stroke="none" /><text fill="#e1ed5e" style="font-size:6.75px; font-family:Arial;" text-anchor="middle"><textPath startOffset="22.20632615414155" xlink:href="#id1">January</textPath></text><line stroke="#e1ed5e" stroke-width="0.3" x1="143.23703022742887" x2="145.7803849466894" y1="26.81831364943548" y2="22.513508569990506" /><path d="M 143.74570117128098 25.957352633546492 a86.0,86.0 0 0,1 28.547481713284135,27.462654790039103" fill="none" id="id2" stroke="none" /><text fill="#e1ed5e" style="font-size:6.75px; font-family:Arial;" text-anchor="middle"><textPath startOffset="19.985693538727396" xlink:href="#id2">February</textPath></text><line stroke="#e1ed5e" stroke-width="0.3" x1="172.23445277983987" x2="176.4835382374775" y1="55.19839476539836" y2="52.563006222186495" /><path d="M 173.08426987136738 54.67131705675599 a86.0,86.0 0 0,1 12.851231095245387,41.99856678651699" fill="none" id="id3" stroke="none" /><text fill="#e1ed5e" style="font-size:6.75px; font-family:Arial;" text-anchor="middle"><textPath startOffset="22.20632615414155" xlink:href="#id3">March</textPath></text><line stroke="#e1ed5e" stroke-width="0.3" x1="184.98032266829074" x2="189.97916517819016" y1="98.17113171792111" y2="98.06355123074" /><path d="M 185.9800911702706 98.14961562048488 a86.0,86.0 0 0,1 -9.607161424134198,41.387399972396054" fill="none" id="id4" stroke="none" /><text fill="#e1ed5e" style="font-size:6.75px; font-family:Arial;" text-anchor="middle"><textPath startOffset="21.466115282336823" xlink:href="#id4">April</textPath></text><line stroke="#e1ed5e" stroke-width="0.3" x1="174.80103733775053" x2="179.2010983576182" y1="140.37084112569926" y2="142.7455964860345" /><path d="M 175.68104954172406 140.8457921977663 a86.0,86.0 0 0,1 -30.038265399797805,32.042727171017184" fill="none" id="id5" stroke="none" /><text fill="#e1ed5e" style="font-size:6.75px; font-family:Arial;" text-anchor="middle"><textPath startOffset="22.206326154141568" xlink:href="#id5">May</textPath></text><line stroke="#e1ed5e" stroke-width="0.3" x1="143.8653032363475" x2="146.44561519142675" y1="172.8068346515853" y2="177.08958963109032" /><path d="M 144.38136562736335 173.6633856474863 a86.0,86.0 0 0,1 -40.68145358897372,12.25698825130547" fill="none" id="id6" stroke="none" /><text fill="#e1ed5e" style="font-size:6.75px; font-family:Arial;" text-anchor="middle"><textPath startOffset="21.466115282336833" xlink:href="#id6">June</textPath></text><line stroke="#e1ed5e" stroke-width="0.3" x1="102.19456741930631" x2="102.32365962044197" y1="184.97166512339345" y2="189.96999836594603" /><path d="M 102.22038585953345 185.97133177190398 a86.0,86.0 0 0,1 -42.740103519485714,-10.115201625700543" fill="none" id="id7" stroke="none" /><text fill="#e1ed5e" style="font-size:6.75px; font-family:Arial;" text-anchor="middle"><textPath startOffset="22.20632615414155" xlink:href="#id7">July</textPath></text><path d="M 91.07499286063937 119.00905698771935 l -6.07577734143273 12.940583231428374 a35.29593525,35.29593525 0 0,0 -0.5477380080504147,-0.2629475298481357 l 6.297628017483387 -12.834081425080674" fill="#ff790b" stroke="none" /><path d="M 90.42595943632237 118.69057910512821 l -10.381026184889413 20.265987992278998 a43.770067499999996,43.770067499999996 0 0,0 -0.6676167055847316,-0.34926550684780794 l 10.728333793000639 -20.08429306648647" fill="#fff116" stroke="none" /><path d="M 90.10565033884886 118.52300852407294 l -10.957715914673633 20.513714619244134 a44.2569135,44.2569135 0 0,0 -0.6688635600953716,-0.3647177431159248 l 11.309202286637644 -20.322056224368445" fill="#fff717" stroke="none" /><line stroke="#e1ed5e" stroke-width="0.3" x1="58.666819895761336" x2="56.23545636021788" y1="174.27360380694188" y2="178.64263932499728" /><path d="M 58.180547188652646 175.14741091055294 a86.0,86.0 0 0,1 -31.652253787137756,-30.449443065178592" fill="none" id="id8" stroke="none" /><text fill="#e1ed5e" style="font-size:6.75px; font-family:Arial;" text-anchor="middle"><textPath startOffset="22.20632615414155" xlink:href="#id8">August</textPath></text><path d="M 89.4739219176387 118.17145234162733 l -12.205091293553297 21.06997810871854 a45.349707,45.349707 0 0,0 -0.6721088503737659,-0.3970937556771496 l 12.565968014955445 -20.856765780747644" fill="#f8ff18" stroke="none" /><path d="M 89.1626897886671 117.98757091392108 l -12.933174015501143 21.466247639809488 a46.0612605,46.0612605 0 0,0 -0.6756107767303022,-0.4150153199534508 l 13.300763992163754 -21.24044385302766" fill="#efff19" stroke="none" /><path d="M 88.54995079064634 117.60387380957326 l -12.54246421784261 19.28340684960713 a44.0035473,44.0035473 0 0,0 -0.63139914984204,-0.41845692737198914 l 12.872538066424612 -19.064651901143822" fill="#fff417" stroke="none" /><path d="M 87.95078237400918 117.19931262002967 l -13.531602747472409 19.315301053390385 a44.583577500000004,44.583577500000004 0 0,0 -0.6247489754752973,-0.4457418058875218 l 13.862079050796593 -19.079514985658644" fill="#fffc17" stroke="none" /><path d="M 87.65650970185807 116.9893568818739 l -15.163731843139278 20.871086355769936 a46.798081499999995,46.798081499999995 0 0,0 -0.6476298018798542,-0.47910104478883686 l 15.520746615437696 -20.606975362241332" fill="#e5ff1a" stroke="none" /><path d="M 87.36589467227662 116.77436683061367 l -14.556879890752546 19.327244538705106 a45.1959735,45.1959735 0 0,0 -0.6174012564247466,-0.4733969560863281 l 14.88740987567078 -19.07380824079141" fill="#faff18" stroke="none" /><path d="M 86.79598089348748 116.32954008644616 l -15.232735720453936 18.8384738439758 a45.2265213,45.2265213 0 0,0 -0.601146336992376,-0.4947025095104612 l 15.554752185991001 -18.57347621560816" fill="#faff18" stroke="none" /><path d="M 86.51685102203217 116.09983520530335 l -4.131051742475518 4.93276847916734 a27.4341117,27.4341117 0 0,0 -0.359431964195776,-0.3063157175975791 l 4.2153491832483505 -4.860928371346809" fill="#ff0000" stroke="none" /><path d="M 86.24171649860922 115.8653595955263 l -15.964967713037094 18.409996688372956 a45.3681795,45.3681795 0 0,0 -0.5855900946753134,-0.5167151731581358 l 16.279500160618994 -18.13245837344253" fill="#f8ff18" stroke="none" /><path d="M 85.97065885151581 115.62618273729859 l -16.937997350296992 18.865906744894936 a46.3538595,46.3538595 0 0,0 -0.5891364754523867,-0.5381622020347411 l 17.26023337521623 -18.57155177627362" fill="#ebff1a" stroke="none" /><path d="M 85.44109423537348 115.13401014063109 l -18.92128741161271 19.66871413213574 a48.29236949999999,48.29236949999999 0 0,0 -0.5941112362005114,-0.5814628884619158 l 19.257048600189016 -19.340101140751255" fill="#d2ff1c" stroke="none" /><path d="M 85.18274418774928 114.88116024355367 l -19.908058704855733 19.993918946860017 a49.215024299999996,49.215024299999996 0 0,0 -0.5951722290049877,-0.6029063257213135 l 20.249271558916256 -19.64827212715804" fill="#c6ff1e" stroke="none" /><path d="M 84.9287848128048 114.62390073753433 l -16.94589221008158 16.442937248997538 a44.6121462,44.6121462 0 0,0 -0.5300208669440065,-0.5557247599952885 l 17.226419628404546 -16.148805372419748" fill="#fffc17" stroke="none" /><path d="M 84.43433777217949 114.09645910891817 l -17.06759053015027 15.456624233179824 a44.0262867,44.0262867 0 0,0 -0.5038727805328602,-0.5661064104473452 l 17.331122160331468 -15.160543652991613" fill="#fff417" stroke="none" /><path d="M 84.19399662182784 113.82643327865904 l -10.168466782577495 8.894951124059984 a34.50991755,34.50991755 0 0,0 -0.38726288403582565,-0.45047422411916255 l 10.3200721761841 -8.718599800779291" fill="#ff6d0a" stroke="none" /><path d="M 83.95833913139862 113.55231037782056 l -11.72672726151555 9.906969662672124 a36.3513576,36.3513576 0 0,0 -0.3996987561495475,-0.48146290024152977 l 11.895522017558633 -9.703645505316832" fill="#ff890c" stroke="none" /><path d="M 83.50135304334701 112.99209946851258 l -24.117553010104036 18.991717834052142 a51.69758475,51.69758475 0 0,0 -0.5445311101424356,-0.7038798633914342 l 24.440890937464538 -18.573759976547457" fill="#a7ff21" stroke="none" /><path d="M 83.28015986056508 112.70617746262583 l -33.24724423420445 25.266113901812865 a62.7583017,62.7583017 0 0,0 -0.6462274125702709,-0.8657272241123382 l 33.67723291346981 -24.690073798191218" fill="#30ff37" stroke="none" /><path d="M 83.06392112726016 112.41649034213515 l -14.885296340359293 10.912982847959007 a39.457119000000006,39.457119000000006 0 0,0 -0.3968638508304936,-0.5512091781102568 l 15.070939983565394 -10.655140064397612" fill="#ffb510" stroke="none" /><path d="M 82.05923443525364 110.91462005526583 l -19.54340261929587 11.889616048261264 a43.8759165,43.8759165 0 0,0 -0.3869837539079762,-0.6486070308137062 l 19.745167248902074 -11.551446923561446" fill="#fff216" stroke="none" /><line stroke="#e1ed5e" stroke-width="0.3" x1="26.63291911575756" x2="22.317208475507996" y1="142.92168965132927" y2="145.44649492493687" /><path d="M 25.769776987707644 143.4266507060508 a86.0,86.0 0 0,1 -11.730757126820373,-40.83630448921669" fill="none" id="id9" stroke="none" /><text fill="#e1ed5e" style="font-size:6.75px; font-family:Arial;" text-anchor="middle"><textPath startOffset="21.46611528233685" xlink:href="#id9">September</textPath></text><path d="M 81.87401531095188 110.60418214915194 l -16.620679922716327 9.723538906536065 a40.2560175,40.2560175 0 0,0 -0.34476020905857,-0.6011184844181282 l 16.785592127927274 -9.43600057625963" fill="#ffc111" stroke="none" /><path d="M 81.35079622478065 109.6543875284942 l -20.207823635550156 10.461259517379634 a43.75508925,43.75508925 0 0,0 -0.3405007089931248,-0.6718402021540772 l 20.38490301432955 -10.111865103522872" fill="#fff116" stroke="none" /><path d="M 80.32549172779594 107.34259656027581 l -26.15408904408044 9.760799182133711 a48.91611675,48.91611675 0 0,0 -0.2876168411648081,-0.7913980203675464 l 26.318230146250475 -9.309153364760048" fill="#caff1d" stroke="none" /><path d="M 79.97269907076064 106.31721596034903 l -43.556611462002884 13.739071584267476 a66.6720975,66.6720975 0 0,0 -0.3358153779219504,-1.0974640851966688 l 43.78665361243097 -12.98728052651876" fill="#35ff69" stroke="none" /><path d="M 79.76711848015287 105.62410040840567 l -60.698644559541364 16.872301225217015 a84.0,84.0 0 0,0 -0.3752476946329004,-1.3964362672978443 l 60.98008033051604 -15.824974024743632" fill="#4dd2ff" stroke="none" /><path d="M 79.67330655649465 105.27499134158121 l -22.260220792491857 5.776762082255866 a43.997574,43.997574 0 0,0 -0.18392805693647166,-0.7347011588501493 l 22.356360163723387 -5.3927330840083245" fill="#fff417" stroke="none" /><path d="M 79.50377843672027 104.57218783832718 l -50.14229315604751 11.185475442198094 a72.374745,72.374745 0 0,0 -0.2607764120237369,-1.2182605800371 l 50.327403606795684 -10.32070104274483" fill="#3dffae" stroke="none" /><path d="M 79.29508885075956 103.50808413554451 l -44.660298131177925 7.566904404147658 a66.296802,66.296802 0 0,0 -0.18095316105223191,-1.1267955066055473 l 44.78393304659145 -6.797029667848896" fill="#35ff64" stroke="none" /><path d="M 79.23777060512086 103.15116336523772 l -38.49247924643758 5.842151540261099 a59.93329799999999,59.93329799999999 0 0,0 -0.1460259079940461,-1.0213048604022856 l 38.58733920544823 -5.178701207878413" fill="#48ff2c" stroke="none" /><path d="M 79.10278846688536 102.07522291339032 l -52.3759276348474 5.201254960053909 a73.63355250000001,73.63355250000001 0 0,0 -0.11439639894598423,-1.262354729870774 l 52.45769863007046 -4.298918841634568" fill="#3fffbd" stroke="none" /><path d="M 79.04373962182676 101.35467743843564 l -49.45636434853572 3.1970122417353894 a70.559589,70.559589 0 0,0 -0.06791746540790394,-1.2127119692308066 l 49.50406816483116 -2.3452285561691455" fill="#3bff99" stroke="none" /><path d="M 79.0235259727143 100.99374915477108 l -27.42179233944476 1.2990926370268243 a48.452546999999996,48.452546999999996 0 0,0 -0.0322967769489022,-0.833436305548748 l 27.440091249244865 -0.8268790844640794" fill="#d0ff1d" stroke="none" /><line stroke="#e1ed5e" stroke-width="0.3" x1="15.007084014347285" x2="10.007500721073583" y1="101.09737516637583" y2="101.16192664675087" /><path d="M 14.007167355692545 101.11028546245083 a86.0,86.0 0 0,1 10.666146001902534,-42.60595125391555" fill="none" id="id10" stroke="none" /><text fill="#e1ed5e" style="font-size:6.75px; font-family:Arial;" text-anchor="middle"><textPath startOffset="22.20632615414155" xlink:href="#id10">October</textPath></text><path d="M 79.81627453868168 94.20196356495316 l -22.24058548851553 -6.388896105742246 a44.140044,44.140044 0 0,0 0.21606362973475154,-0.7284591484816544 l 22.127315961669073 6.770784640970439" fill="#fff617" stroke="none" /><path d="M 80.02781315780177 93.51064311812611 l -43.17187622492614 -14.027392908807622 a66.393597,66.393597 0 0,0 0.3625175956307778,-1.0838814688255152 l 42.924021335523584 14.768447480555459" fill="#35ff66" stroke="none" /><path d="M 80.14247586403 93.16781622104843 l -48.82839089756759 -16.799906068771943 a72.6376665,72.6376665 0 0,0 0.41696413874950017,-1.1788137692396303 l 48.53197367800828 17.637917464438186" fill="#3effb2" stroke="none" /><path d="M 80.803312248108 91.48605970444005 l -34.688650612689806 -15.384794713914733 a58.947258,58.947258 0 0,0 0.41936113174112066,-0.9240066653670553 l 34.41868716398533 15.97962338812386" fill="#53ff2b" stroke="none" /><line stroke="#e1ed5e" stroke-width="0.3" x1="26.266209847984243" x2="21.928928074336255" y1="57.711370442889674" y2="55.22380399835377" /><path d="M 25.398753493254645 57.213857153982495 a86.0,86.0 0 0,1 29.58750427330803,-30.492523968695096" fill="none" id="id11" stroke="none" /><text fill="#e1ed5e" style="font-size:6.75px; font-family:Arial;" text-anchor="middle"><textPath startOffset="21.46611528233685" xlink:href="#id11">November</textPath></text><line stroke="#e1ed5e" stroke-width="0.3" x1="56.762969772571076" x2="54.21961505331055" y1="26.818313649435495" y2="22.513508569990535" /><path d="M 56.25429882871897 25.957352633546506 a86.0,86.0 0 0,1 42.265352541879196,-11.944610805530505" fill="none" id="id12" stroke="none" /><text fill="#e1ed5e" style="font-size:6.75px; font-family:Arial;" text-anchor="middle"><textPath startOffset="22.20632615414155" xlink:href="#id12">December</textPath></text></svg>