<?xml version="1.0" encoding="utf-8" ?>
<svg baseProfile="full" height="200mm" version="1.1" viewBox="0,0,200,200" width="200mm" xmlns="http://www.w3.org/2000/svg" xmlns:ev="http://www.w3.org/2001/xml-events" xmlns:xlink="http://www.w3.org/1999/xlink"><defs /><rect fill="#1a1a1a" height="200" width="200" x="0" y="0" /><text alignment-baseline="middle" fill="#e1ed5e" style="dominant-baseline: central; font-size:9.0px; font-family:Arial;" text-anchor="middle" x="100.0" y="100.0">2020</text><line stroke="#e1ed5e" stroke-width="0.3" x1="100.0" x2="100.0" y1="15.0" y2="10.0" /><path d="M 100.0 14.0 a86.0,86.0 0 0,1 42.35913384403234,11.155469271406648" fill="none" id="id13" stroke="none" /><text fill="#e1ed5e" style="font-size:6.75px; font-family:Arial;" text-anchor="middle"><textPath startOffset="22.145653131862478" xlink:href="#id13">January</textPath></text><line stroke="#e1ed5e" stroke-width="0.3" x1="143.13028292997686" x2="145.6673583964461" y1="26.7553504044142" y2="22.446841604673864" /><path d="M 143.63769802327073 25.89364864446614 a86.0,86.0 0 0,1 29.32050498858742,28.57503671076993" fill="none" id="id14" stroke="none" /><text fill="#e1ed5e" style="font-size:6.75px; font-family:Arial;" text-anchor="middle"><textPath startOffset="20.669276256404974" xlink:href="#id14">February</textPath></text><line stroke="#e1ed5e" stroke-width="0.3" x1="172.87174338648825" x2="177.1583165268699" y1="56.24261187166439" y2="53.66864786411523" /><path d="M 173.72905801456457 55.72781907015455 a86.0,86.0 0 0,1 12.242430191666344,42.057860355516425" fill="none" id="id15" stroke="none" /><text fill="#e1ed5e" style="font-size:6.75px; font-family:Arial;" text-anchor="middle"><textPath startOffset="22.145653131862474" xlink:href="#id15">March</textPath></text><line stroke="#e1ed5e" stroke-width="0.3" x1="184.99686870605535" x2="189.99668451229388" y1="99.2704041080226" y2="99.22748670261217" /><path d="M 185.99683186730306 99.26182062694052 a86.0,86.0 0 0,1 -10.086455211305974,41.156179273409016" fill="none" id="id16" stroke="none" /><text fill="#e1ed5e" style="font-size:6.75px; font-family:Arial;" text-anchor="middle"><textPath startOffset="21.40746469413373" xlink:href="#id16">April</textPath></text><path d="M 119.31412917781788 108.2440532568976 l 11.664736134286725 4.978982227640999 a33.68291500821871,33.68291500821871 0 0,0 -0.23155579438519142,0.5298449727491003 l -11.577546457884567 -5.178489270165944" fill="#ff5b08" stroke="none" /><path d="M 119.0197475246899 108.90220220490707 l 11.585887980372386 5.422780580593381 a33.79215968939561,33.79215968939561 0 0,0 -0.2504171888571855,0.5232756123433823 l -11.49109153355529 -5.6208686950018665" fill="#ff5d08" stroke="none" /><line stroke="#e1ed5e" stroke-width="0.3" x1="174.33088141563837" x2="178.70328620479359" y1="141.23008692659167" y2="143.65538615756765" /><path d="M 175.20536237346943 141.71514677278685 a86.0,86.0 0 0,1 -30.301960400862466,31.631185727798858" fill="none" id="id17" stroke="none" /><text fill="#e1ed5e" style="font-size:6.75px; font-family:Arial;" text-anchor="middle"><textPath startOffset="22.145653131862474" xlink:href="#id17">May</textPath></text><path d="M 113.86319453409587 115.77377054828091 l 16.63761276699423 18.930549204388825 a46.202695327369966,46.202695327369966 0 0,0 -0.6002401607414931,0.5184731547542717 l -16.31019312648988 -19.213366491607815" fill="#f1ff19" stroke="none" /><path d="M 113.31354834802062 116.24036423190432 l 12.046663825109642 14.69497110649493 a40.001691638796956,40.001691638796956 0 0,0 -0.5347830529561419,0.43078337215543205 l -11.792630001798248 -14.899602772443767" fill="#ffb811" stroke="none" /><path d="M 113.03279911837588 116.46651593811092 l 11.90719863734454 15.04435650079447 a40.186298285812626,40.186298285812626 0 0,0 -0.5446009930506929,0.42348502618587885 l -11.647187699658616 -15.246542578601142" fill="#ffbb11" stroke="none" /><path d="M 111.5731344415666 117.5232005979908 l 17.1673508883492 25.993557309087734 a52.15097041994892,52.15097041994892 0 0,0 -0.751257992560678,0.4869563543362671 l -16.718607263531513 -26.284427505127894" fill="#a5ff21" stroke="none" /><path d="M 110.96478420261333 117.91015095944535 l 16.156772987361585 26.39087444622639 a51.94381307146264,51.94381307146264 0 0,0 -0.7644824342806072,0.4590497364210744 l -15.701357796523542 -26.66433818318339" fill="#a7ff21" stroke="none" /><line stroke="#e1ed5e" stroke-width="0.3" x1="143.1302829299769" x2="145.66735839644613" y1="173.24464959558577" y2="177.55315839532614" /><path d="M 143.63769802327073 174.10635135553383 a86.0,86.0 0 0,1 -40.68552437913181,11.842963189579606" fill="none" id="id18" stroke="none" /><text fill="#e1ed5e" style="font-size:6.75px; font-family:Arial;" text-anchor="middle"><textPath startOffset="21.407464694133747" xlink:href="#id18">June</textPath></text><path d="M 110.65571695917076 118.09573695890943 l 12.629457847630965 21.447580488488263 a45.88979538556454,45.88979538556454 0 0,0 -0.6822447508437322,0.3938941905528394 l -12.259420628926833 -21.661221576317278" fill="#f5ff19" stroke="none" /><path d="M 110.34350942703117 118.27599006163325 l 9.21884544541218 16.288816569333846 a39.71664116704174,39.71664116704174 0 0,0 -0.5962334264204202,0.33072063093659876 l -8.937867830835666 -16.444670115703587" fill="#ffb410" stroke="none" /><path d="M 109.71004243097381 118.62028667847754 l 11.908832538968568 22.836756631900496 a46.75534402615985,46.75534402615985 0 0,0 -0.7148508669626858,0.36500794618523164 l -11.5150544502923 -23.03782252975856" fill="#e9ff1a" stroke="none" /><path d="M 109.3889696526874 118.78422872680471 l 11.628379503387016 23.26454854939152 a47.008814449755036,47.008814449755036 0 0,0 -0.7249201311378238,0.35459476235053083 l -11.227299122987123 -23.460737061839275" fill="#e6ff1a" stroke="none" /><path d="M 109.06512990194946 118.94263497670748 l 13.501448310511082 28.212834208574947 a52.27703823193525,52.27703823193525 0 0,0 -0.8128115708617913,0.38043685642550645 l -13.015148025777785 -28.440447296570987" fill="#a3ff21" stroke="none" /><path d="M 108.07796709384702 119.3841803445677 l 11.920784854340457 28.60554404106644 a51.99003487298562,51.99003487298562 0 0,0 -0.8267542956374738,0.336233774601833 l -11.427976097512541 -28.805965072247567" fill="#a7ff21" stroke="none" /><path d="M 107.407793817531 119.65005319985036 l 9.676235183033818 25.667363428893488 a48.430695811595456,48.430695811595456 0 0,0 -0.7804510883610922,0.28659245002018174 l -9.234194943018599 -25.829686727922393" fill="#d4ff1c" stroke="none" /><path d="M 106.72888874123015 119.89276391827305 l 8.7082604693616 25.744424721186668 a48.17736566753837,48.17736566753837 0 0,0 -0.7856977286267895,0.2582744493394982 l -8.265040003087075 -25.890120091928186" fill="#d7ff1c" stroke="none" /><path d="M 106.38641147887787 120.00534299687104 l 7.5880685194643664 23.769516561484743 a45.95132664654895,45.95132664654895 0 0,0 -0.7535128458435648,0.2334402057840623 l -7.178915040749177 -23.89627335507545" fill="#f4ff19" stroke="none" /><path d="M 104.29559338865022 120.5559693870025 l 6.345418518657175 30.365124679135906 a52.02104338922832,52.02104338922832 0 0,0 -0.8756962697351761,0.17516377925141885 l -5.82322576339104 -30.469577855050186" fill="#a6ff21" stroke="none" /><path d="M 103.94208987418118 120.62667999033965 l 11.627936731195478 60.84227847598334 a82.9434561739478,82.9434561739478 0 0,0 -1.4008172849585432,0.2552755729983885 l -10.581784712685877 -61.03292222291309" fill="#4cddff" stroke="none" /><path d="M 103.2317021107853 120.74984581791261 l 5.7518007915739675 36.93068714538968 a58.37591290358808,58.37591290358808 0 0,0 -0.991486789044868,0.14571441426685752 l -5.116988896921414 -37.02398263295542" fill="#5bff2a" stroke="none" /><path d="M 102.15924093988457 120.88869738790638 l 6.318707709366652 61.12776521857135 a82.45347628680733,82.45347628680733 0 0,0 -1.4091708876075448,0.13344994816588313 l -5.268437258374092 -61.227226922242416" fill="#4be2ff" stroke="none" /><path d="M 101.08105385017728 120.97215588758144 l 1.9083902519021327 37.02226105634699 a58.071414419709726,58.071414419709726 0 0,0 -0.9959917866406176,0.042772172807241694 l -1.2725727046606856 -37.049565797580065" fill="#5fff29" stroke="none" /><path d="M 100.72087961077811 120.9876233191556 l 0.6358051533013245 18.510773314094358 a39.52168936352061,39.52168936352061 0 0,0 -0.6782424120021298,0.017469118641710208 l -0.3179494272284508 -18.518960150086116" fill="#ffb110" stroke="none" /><line stroke="#e1ed5e" stroke-width="0.3" x1="101.45913802915013" x2="101.54496967792366" y1="184.9874750549273" y2="189.98673829345242" /><path d="M 101.47630435890484 185.9873277026323 a86.0,86.0 0 0,1 -42.54439059252881,-10.42667462771756" fill="none" id="id19" stroke="none" /><text fill="#e1ed5e" style="font-size:6.75px; font-family:Arial;" text-anchor="middle"><textPath startOffset="22.145653131862474" xlink:href="#id19">July</textPath></text><path d="M 100.0 121.0 l 2.335199472337882e-15 19.06835076010274 a40.06835076010274,40.06835076010274 0 0,0 -0.6878265218751983,-0.005904163440287933 l 0.32733359702634385 -19.065540994856885" fill="#ffb911" stroke="none" /><path d="M 99.63950707515114 120.99690560180557 l -0.5354735367348337 31.188649008300075 a52.1932454045981,52.1932454045981 0 0,0 -0.8957024161550231,-0.02307011696494369 l 1.0707892669606007 -31.174861173985086" fill="#a4ff21" stroke="none" /><path d="M 99.27912038922189 120.98762331915562 l -1.3023830723011314 37.91746212546775 a58.93982255761481,58.93982255761481 0 0,0 -1.010885988571926,-0.04341179392398627 l 1.953094821473896 -37.88951776311794" fill="#55ff2b" stroke="none" /><path d="M 98.19965949673042 120.92268563240118 l -4.201304791106783 48.8255300764433 a70.00595218127535,70.00595218127535 0 0,0 -1.1964365144527365,-0.11330378184902881 l 5.038840868944535 -48.74621453908909" fill="#3aff91" stroke="none" /><path d="M 96.05791012581884 120.62667999033965 l -11.63213162432632 60.864227929437114 a82.96580288814246,82.96580288814246 0 0,0 -1.3966049000811498,-0.2793600942176506 l 12.675233009938427 -60.655578438556596" fill="#4cdcff" stroke="none" /><path d="M 93.95794788825049 120.11202640906438 l -5.3475053858080175 17.800106247485424 a39.586005387737714,39.586005387737714 0 0,0 -0.6491338934505457,-0.201103339517535 l 5.652279912130197 -17.705686320161238" fill="#ffb210" stroke="none" /><path d="M 93.27111125876986 119.89276391827306 l -9.93312645700113 29.365523369220124 a52.00001554772173,52.00001554772173 0 0,0 -0.8431288165508749,-0.2932839689490394 l 10.435761045597028 -29.190680967702495" fill="#a7ff21" stroke="none" /><path d="M 91.59046798132341 119.24265499422711 l -10.061413727467894 23.02248361524324 a46.125023343460256,46.125023343460256 0 0,0 -0.7228155702525587,-0.32330621073108246 l 10.455142700576086 -22.846373653602303" fill="#f2ff19" stroke="none" /><line stroke="#e1ed5e" stroke-width="0.3" x1="58.13341422392154" x2="55.67067388415222" y1="173.97424548756322" y2="178.32567169271397" /><path d="M 57.64086615596768 174.84453072859336 a86.0,86.0 0 0,1 -31.369924170532247,-30.572349798747897" fill="none" id="id20" stroke="none" /><text fill="#e1ed5e" style="font-size:6.75px; font-family:Arial;" text-anchor="middle"><textPath startOffset="22.145653131862474" xlink:href="#id20">August</textPath></text><path d="M 85.34317274990678 115.03919595460226 l -21.62601306578064 22.190194553258145 a51.98530579860012,51.98530579860012 0 0,0 -0.6337456342360164,-0.6283290374314616 l 22.00375062014662 -21.815685505598026" fill="#a7ff21" stroke="none" /><path d="M 85.08716467003676 114.78537596483092 l -35.01250439216003 34.71325401603934 a70.30401067046267,70.30401067046267 0 0,0 -0.8423531912725113,-0.8643285815114821 l 35.603244384583355 -34.10710274246012" fill="#3aff95" stroke="none" /><line stroke="#e1ed5e" stroke-width="0.3" x1="26.387840678322732" x2="22.057713659400548" y1="142.50000000000003" y2="145.00000000000006" /><path d="M 25.521815274538298 143.00000000000003 a86.0,86.0 0 0,1 -11.493303480769221,-40.785679425670985" fill="none" id="id21" stroke="none" /><text fill="#e1ed5e" style="font-size:6.75px; font-family:Arial;" text-anchor="middle"><textPath startOffset="21.40746469413373" xlink:href="#id21">September</textPath></text><path d="M 80.05021161711548 106.5578916946017 l -20.052697983758488 6.591720124453366 a42.10832704472231,42.10832704472231 0 0,0 -0.2198361144615446,-0.6886334974575185 l 20.162898813997288 -6.246517593304456" fill="#ffd614" stroke="none" /><path d="M 79.73907114497094 105.5222062557868 l -30.103979469374554 8.204973470828525 a52.20210200530606,52.20210200530606 0 0,0 -0.22822390896149802,-0.8666033557985384 l 30.240392859140783 -7.686989610657185" fill="#a4ff21" stroke="none" /><path d="M 79.48165901384964 104.47187691870673 l -30.743969578488713 6.700505076909732 a52.46567071792261,52.46567071792261 0 0,0 -0.18423517437498096,-0.8816320032681776 l 30.854462463688062 -6.1717566223561455" fill="#a1ff22" stroke="none" /><path d="M 79.34024301695615 103.76489593502545 l -31.19778757863219 5.685276149810493 a52.711580135670644,52.711580135670644 0 0,0 -0.1545834420441901,-0.8915962147597478 l 31.290785838168617 -5.148886902130152" fill="#9eff22" stroke="none" /><path d="M 79.06263194458094 101.62068470465958 l -31.70832380466265 2.4544247999360733 a52.80317593574386,52.80317593574386 0 0,0 -0.062197210026400385,-0.9043337833726388 l 31.745784975854118 -1.9097475924090912" fill="#9dff22" stroke="none" /><line stroke="#e1ed5e" stroke-width="0.3" x1="15.003131293944662" x2="10.003315487706104" y1="100.72959589197737" y2="100.7725132973878" /><path d="M 14.003168132696942 100.73817937305945 a86.0,86.0 0 0,1 10.791469493833604,-42.45332614584628" fill="none" id="id22" stroke="none" /><text fill="#e1ed5e" style="font-size:6.75px; font-family:Arial;" text-anchor="middle"><textPath startOffset="22.145653131862435" xlink:href="#id22">October</textPath></text><path d="M 79.03789590574601 98.7389718711861 l -30.89958774248691 -1.8588424681428064 a51.955448922233685,51.955448922233685 0 0,0 0.06119866677271043,-0.8898151836140683 l 30.86312511454914 2.3890010759112" fill="#a7ff21" stroke="none" /><path d="M 79.0935383218832 98.0201363427161 l -61.341237042382176 -5.80907892415726 a82.61568598852736,82.61568598852736 0 0,0 0.1458269439562307,-1.410743399237183 l 61.23247770594428 6.861226845677355" fill="#4be0ff" stroke="none" /><path d="M 79.17382384314186 97.30363454192245 l -31.143418948650766 -4.03213909587176 a52.40335474912891,52.40335474912891 0 0,0 0.12316156703677146,-0.8911357462120705 l 31.069612865058787 4.566163150283898" fill="#a2ff22" stroke="none" /><path d="M 79.2786578344484 96.59031103205396 l -61.0290040398216 -10.04229939049291 a82.84971391316904,82.84971391316904 0 0,0 0.24296736914565184,-1.40137121916635 l 60.84762185318372 11.088463642579853" fill="#4bdeff" stroke="none" /><path d="M 79.64726062577567 94.8264132398404 l -16.14434770212095 -4.103830053898539 a37.65777247528189,37.65777247528189 0 0,0 0.16463712584253062,-0.625153983179867 l 16.071521095473695 4.380364541451192" fill="#ff970d" stroke="none" /><path d="M 79.83685265289637 94.1308016681162 l -59.13153781751693 -17.212328866413174 a82.58573722600059,82.58573722600059 0 0,0 0.40790936096638164,-1.3577975973274172 l 58.827352136546914 18.224864067331314" fill="#4be0ff" stroke="none" /><path d="M 80.41425534168474 92.42381321644754 l -29.35603555350565 -11.3555451915657 a52.475787996750434,52.475787996750434 0 0,0 0.33220003754687516,-0.8373611037441311 l 29.15677684099264 11.857807312523413" fill="#a1ff22" stroke="none" /><path d="M 80.83023694016515 91.42560881287825 l -33.99569428601438 -15.205841646359806 a58.24143995822826,58.24143995822826 0 0,0 0.41605337061648934,-0.9091517004757101 l 33.72965645054284 15.787182329050188" fill="#5dff2a" stroke="none" /><path d="M 81.29705330413844 90.45014215332179 l -27.754215314167656 -14.171500096027577 a52.16292480940915,52.16292480940915 0 0,0 0.41405422211406784,-0.7940035659993248 l 27.506853023078648 14.645849905131389" fill="#a5ff21" stroke="none" /><line stroke="#e1ed5e" stroke-width="0.3" x1="26.387840678322718" x2="22.05771365940052" y1="57.49999999999999" y2="54.99999999999999" /><path d="M 25.521815274538284 56.99999999999999 a86.0,86.0 0 0,1 29.574782752854787,-30.34633250058573" fill="none" id="id23" stroke="none" /><text fill="#e1ed5e" style="font-size:6.75px; font-family:Arial;" text-anchor="middle"><textPath startOffset="21.40746469413373" xlink:href="#id23">November</textPath></text><path d="M 81.81346652052679 89.5 l -27.018306350057614 -15.599026444253543 a52.19805288850708,52.19805288850708 0 0,0 0.45468553111162635,-0.7721554355792868 l 26.74654710881621 16.060533048126402" fill="#a4ff21" stroke="none" /><path d="M 81.99639281039701 89.18935116829357 l -26.740948807320475 -16.05717142893048 a52.19152284537893,52.19152284537893 0 0,0 0.4678150753980254,-0.7641407679948571 l 26.461365767467054 16.51384931304988" fill="#a4ff21" stroke="none" /><path d="M 84.58840730492382 85.73525988315684 l -13.62550537800519 -12.611564360897624 a39.566258439306274,39.566258439306274 0 0,0 0.4656461882932169,-0.49450011549707096 l 13.407003355975702 12.843605936339205" fill="#ffb210" stroke="none" /><path d="M 85.86807049272753 84.46653392183569 l -33.85819084065598 -37.21608281591626 a71.31315838986276,71.31315838986276 0 0,0 0.912587605097094,-0.8160414637722415 l 33.2143382087355 37.7918198095719" fill="#3cffa1" stroke="none" /><path d="M 86.13680546590413 84.22622945171909 l -41.58958360228762 -47.32131164484273 a84.0,84.0 0 0,0 1.0912820809486057,-0.9426234701411573 l 40.77112204157617 48.0282792474486" fill="#4dd2ff" stroke="none" /><path d="M 86.96720088162412 83.53348406188908 l -38.243840987569605 -48.31984376007723 a82.62303688135455,82.62303688135455 0 0,0 1.119699744784234,-0.8706852939875819 l 37.40873129815013 48.96923010568561" fill="#4be0ff" stroke="none" /><path d="M 87.83215693770416 82.88440491214696 l -36.122740480644 -50.811158260751434 a83.34281180401703,83.34281180401703 0 0,0 1.1731687754594515,-0.8189629181493617 l 35.24517661401078 51.42376599470592" fill="#4cd9ff" stroke="none" /><path d="M 88.72937992617638 82.28071324371311 l -3.7808130276773264 -5.9440660558609295 a28.04460562605833,28.04460562605833 0 0,0 0.40843078068547,-0.2548910145576666 l 3.6782181182021576 6.008092867260132" fill="#ff0300" stroke="none" /><path d="M 89.03521579738668 82.08984904055464 l -3.584566207081978 -5.8551195086596755 a27.865241390777253,27.865241390777253 0 0,0 0.41010634973853394,-0.24625707970548347 l 3.4835271007860094 5.915790588901083" fill="#ff0000" stroke="none" /><line stroke="#e1ed5e" stroke-width="0.3" x1="56.869717070023135" x2="54.33264160355391" y1="26.7553504044142" y2="22.446841604673864" /><path d="M 56.362301976729285 25.89364864446614 a86.0,86.0 0 0,1 42.16139366436587,-11.88097634709845" fill="none" id="id24" stroke="none" /><text fill="#e1ed5e" style="font-size:6.75px; font-family:Arial;" text-anchor="middle"><textPath startOffset="22.145653131862474" xlink:href="#id24">December</textPath></text><path d="M 89.65649057296885 81.72400993836675 l -15.14646138336697 -26.762345958510902 a51.75123499375028,51.75123499375028 0 0,0 0.7768989334228122,-0.430932742194822 l 14.684818261788054 27.018411616138874" fill="#aaff21" stroke="none" /><path d="M 89.97174638481275 81.54914285379989 l -29.36963652357611 -54.03682323227775 a82.50246998750056,82.50246998750056 0 0,0 1.2501527940598187,-0.6656359477006892 l 28.43769491372973 54.53302964770101" fill="#4be1ff" stroke="none" /><path d="M 90.93487009805054 81.0573650232925 l -11.076270785949003 -23.145145924084385 a46.65894686792167,46.65894686792167 0 0,0 0.7254606072021619,-0.3395521948240764 l 10.677321464875318 23.331874350479005" fill="#ebff1a" stroke="none" /><path d="M 91.5904679813234 80.7573450057729 l -21.71629107078814 -49.69112382250639 a75.22919033707635,75.22919033707635 0 0,0 1.187779087576288,-0.5069922627759104 l 20.860076908041425 50.0565907349417" fill="#41ffce" stroke="none" /><path d="M 92.25597844496254 80.48000691201159 l -11.385094500507952 -28.69787543546355 a51.87374987420347,51.87374987420347 0 0,0 0.8305425502942856,-0.3212717005399146 l 10.890779687720137 28.889087024141507" fill="#a8ff21" stroke="none" /><path d="M 92.93061703081487 80.22567764915836 l -10.331390697216863 -28.89873852778437 a51.68997755352369,51.68997755352369 0 0,0 0.8381018571475288,-0.2915353315206649 l 9.83378306802433 29.071832291873623" fill="#aaff21" stroke="none" /><path d="M 93.61358852112211 79.99465700312896 l -9.321789622346051 -29.200373223128373 a51.65220315300796,51.65220315300796 0 0,0 0.8469961899312635,-0.2624015847460673 l 8.819152799543172 29.356091395681084" fill="#abff21" stroke="none" /><path d="M 94.30408787586887 79.78721728523814 l -8.564709330698342 -30.393131941603958 a52.57683827014823,52.57683827014823 0 0,0 0.870819153828904,-0.23734563273683504 l 8.04170877593476 30.53567806848493" fill="#9fff22" stroke="none" /><path d="M 95.70440661134978 79.44403061299748 l -9.111366132373544 -43.60118529507619 a65.54301687059075,65.54301687059075 0 0,0 1.1033184196503005,-0.22069458416454357 l 8.361551227192265 43.7511692759036" fill="#34ff59" stroke="none" /><path d="M 97.84075906011542 79.11130261209362 l -6.319357719838782 -61.134053480246905 a82.45979805463872,82.45979805463872 0 0,0 1.4092789297615849,-0.13346017987020184 l 5.26897922669218 61.23352541562229" fill="#4be2ff" stroke="none" /></svg>